<svg width="48" height="48" viewBox="0 0 48 48" fill="none" xmlns="http://www.w3.org/2000/svg">
<path fill-rule="evenodd" clip-rule="evenodd" d="M14 6C14 5.44772 14.4477 5 15 5H19C19.5523 5 20 5.44772 20 6V8H21V6C21 5.44772 21.4477 5 22 5H26C26.5523 5 27 5.44772 27 6V8H28V6C28 5.44772 28.4477 5 29 5H33C33.5523 5 34 5.44772 34 6V8H36C36.5012 8 36.925 8.37103 36.9912 8.86784L38.9912 23.8678C39.0029 23.9556 39.0029 24.0444 38.9912 24.1322L36.9912 39.1322C36.925 39.629 36.5012 40 36 40H34V42C34 42.5523 33.5523 43 33 43H29C28.4477 43 28 42.5523 28 42V40H27V42C27 42.5523 26.5523 43 26 43H22C21.4477 43 21 42.5523 21 42V40H20V42C20 42.5523 19.5523 43 19 43H15C14.4477 43 14 42.5523 14 42V40H12C11.4988 40 11.075 39.629 11.0088 39.1322L9.00877 24.1322C8.99707 24.0444 8.99707 23.9556 9.00877 23.8678L11.0088 8.86784C11.075 8.37103 11.4988 8 12 8H14V6ZM16 8V7H18V8H16ZM12.8755 10L11.0088 24L12.8755 38H35.1245L36.9911 24L35.1245 10H12.8755ZM23 8H25V7H23V8ZM30 8H32V7H30V8ZM32 40H30V41H32V40ZM25 40H23V41H25V40ZM18 40H16V41H18V40Z" fill="black"/>
<path fill-rule="evenodd" clip-rule="evenodd" d="M9.00772 11.876C9.07027 11.3755 9.49568 11 10 11H11C11.2868 11 11.5599 11.1232 11.7497 11.3382C11.9395 11.5532 12.0279 11.8394 11.9923 12.124L10.9923 20.124C10.9297 20.6245 10.5043 21 10 21H9C8.71317 21 8.44015 20.8768 8.25032 20.6618C8.06049 20.4468 7.97214 20.1606 8.00772 19.876L9.00772 11.876ZM36.2503 11.3382C36.4401 11.1232 36.7132 11 37 11H38.5C39.0043 11 39.4297 11.3755 39.4923 11.876L40.9923 23.876C41.0026 23.9583 41.0026 24.0417 40.9923 24.124L39.4923 36.124C39.4297 36.6245 39.0043 37 38.5 37H37C36.7132 37 36.4401 36.8768 36.2503 36.6618C36.0605 36.4468 35.9721 36.1606 36.0077 35.876L37.4922 24L36.0077 12.124C35.9721 11.8394 36.0605 11.5532 36.2503 11.3382Z" fill="black"/>
</svg>
