<svg width="48" height="48" viewBox="0 0 48 48" fill="none" xmlns="http://www.w3.org/2000/svg">
<path fill-rule="evenodd" clip-rule="evenodd" d="M9.00772 11.876C9.07027 11.3755 9.49568 11 10 11H11C11.2868 11 11.5599 11.1232 11.7497 11.3382C11.9395 11.5532 12.0279 11.8394 11.9923 12.124L10.9923 20.124C10.9297 20.6245 10.5043 21 10 21H9C8.71317 21 8.44015 20.8768 8.25032 20.6618C8.06049 20.4468 7.97214 20.1606 8.00772 19.876L9.00772 11.876ZM36.2503 11.3382C36.4401 11.1232 36.7132 11 37 11H38.5C39.0043 11 39.4297 11.3755 39.4923 11.876L40.9923 23.876C41.0026 23.9583 41.0026 24.0417 40.9923 24.124L39.4923 36.124C39.4297 36.6245 39.0043 37 38.5 37H37C36.7132 37 36.4401 36.8768 36.2503 36.6618C36.0605 36.4468 35.9721 36.1606 36.0077 35.876L37.4922 24L36.0077 12.124C35.9721 11.8394 36.0605 11.5532 36.2503 11.3382Z" fill="black"/>
<path d="M38 24L36 39H33V42H29V39H26V42H22V39H19V42H15V39H12L10 24L12 9H15V6H19V9H22V6H26V9H29V6H33V9H36L38 24Z" fill="#FA5521"/>
<path d="M38 24L38.9912 24.1322C39.0029 24.0444 39.0029 23.9556 38.9912 23.8678L38 24ZM36 39V40C36.5012 40 36.925 39.629 36.9912 39.1322L36 39ZM33 42V43C33.5523 43 34 42.5523 34 42H33ZM29 42H28C28 42.5523 28.4477 43 29 43V42ZM26 42V43C26.5523 43 27 42.5523 27 42H26ZM22 42H21C21 42.5523 21.4477 43 22 43V42ZM19 42V43C19.5523 43 20 42.5523 20 42H19ZM15 42H14C14 42.5523 14.4477 43 15 43V42ZM12 39L11.0088 39.1322C11.075 39.629 11.4988 40 12 40V39ZM10 24L9.00877 23.8678C8.99708 23.9556 8.99708 24.0444 9.00877 24.1322L10 24ZM12 9V8C11.4988 8 11.075 8.37103 11.0088 8.86784L12 9ZM15 6V5C14.4477 5 14 5.44772 14 6H15ZM19 6H20C20 5.44772 19.5523 5 19 5V6ZM22 6V5C21.4477 5 21 5.44772 21 6H22ZM26 6H27C27 5.44772 26.5523 5 26 5V6ZM29 6V5C28.4477 5 28 5.44772 28 6H29ZM33 6H34C34 5.44772 33.5523 5 33 5V6ZM36 9L36.9912 8.86784C36.925 8.37103 36.5012 8 36 8V9ZM37.0088 23.8678L35.0088 38.8678L36.9912 39.1322L38.9912 24.1322L37.0088 23.8678ZM33 41H29V43H33V41ZM26 41H22V43H26V41ZM19 41H15V43H19V41ZM12.9912 38.8678L10.9912 23.8678L9.00877 24.1322L11.0088 39.1322L12.9912 38.8678ZM10.9912 24.1322L12.9912 9.13216L11.0088 8.86784L9.00877 23.8678L10.9912 24.1322ZM15 7H19V5H15V7ZM22 7H26V5H22V7ZM29 7H33V5H29V7ZM35.0088 9.13216L37.0088 24.1322L38.9912 23.8678L36.9912 8.86784L35.0088 9.13216ZM12 10H15V8H12V10ZM15 10H19V8H15V10ZM20 9V6H18V9H20ZM14 6V9H16V6H14ZM27 9V6H25V9H27ZM19 10H22V8H19V10ZM22 10H26V8H22V10ZM21 6V9H23V6H21ZM34 9V6H32V9H34ZM26 10H29V8H26V10ZM29 10H33V8H29V10ZM28 6V9H30V6H28ZM33 10H36V8H33V10ZM28 39V42H30V39H28ZM36 38H33V40H36V38ZM33 38H29V40H33V38ZM34 42V39H32V42H34ZM21 39V42H23V39H21ZM29 38H26V40H29V38ZM26 38H22V40H26V38ZM27 42V39H25V42H27ZM14 39V42H16V39H14ZM22 38H19V40H22V38ZM19 38H15V40H19V38ZM20 42V39H18V42H20ZM15 38H12V40H15V38Z" fill="black"/>
<path d="M16 31V13H32V31H16Z" fill="white" stroke="black" stroke-width="2" stroke-linejoin="round"/>
</svg>
