<svg width="48" height="48" viewBox="0 0 48 48" fill="none" xmlns="http://www.w3.org/2000/svg">
<path d="M38 24L36 39H33V42H29V39H26V42H22V39H19V42H15V39H12L10 24L12 9H15V6H19V9H22V6H26V9H29V6H33V9H36L38 24Z" fill="#FA5521"/>
<path d="M38 24L38.9912 24.1322C39.0029 24.0444 39.0029 23.9556 38.9912 23.8678L38 24ZM36 39V40C36.5012 40 36.925 39.629 36.9912 39.1322L36 39ZM33 39V38C32.4477 38 32 38.4477 32 39H33ZM33 42V43C33.5523 43 34 42.5523 34 42H33ZM29 42H28C28 42.5523 28.4477 43 29 43V42ZM29 39H30C30 38.4477 29.5523 38 29 38V39ZM26 39V38C25.4477 38 25 38.4477 25 39H26ZM26 42V43C26.5523 43 27 42.5523 27 42H26ZM22 42H21C21 42.5523 21.4477 43 22 43V42ZM22 39H23C23 38.4477 22.5523 38 22 38V39ZM19 39V38C18.4477 38 18 38.4477 18 39H19ZM19 42V43C19.5523 43 20 42.5523 20 42H19ZM15 42H14C14 42.5523 14.4477 43 15 43V42ZM15 39H16C16 38.4477 15.5523 38 15 38V39ZM12 39L11.0088 39.1322C11.075 39.629 11.4988 40 12 40V39ZM10 24L9.00877 23.8678C8.99708 23.9556 8.99708 24.0444 9.00877 24.1322L10 24ZM12 9V8C11.4988 8 11.075 8.37103 11.0088 8.86784L12 9ZM15 9V10C15.5523 10 16 9.55228 16 9H15ZM15 6V5C14.4477 5 14 5.44772 14 6H15ZM19 6H20C20 5.44772 19.5523 5 19 5V6ZM19 9H18C18 9.55228 18.4477 10 19 10V9ZM22 9V10C22.5523 10 23 9.55228 23 9H22ZM22 6V5C21.4477 5 21 5.44772 21 6H22ZM26 6H27C27 5.44772 26.5523 5 26 5V6ZM26 9H25C25 9.55228 25.4477 10 26 10V9ZM29 9V10C29.5523 10 30 9.55228 30 9H29ZM29 6V5C28.4477 5 28 5.44772 28 6H29ZM33 6H34C34 5.44772 33.5523 5 33 5V6ZM33 9H32C32 9.55228 32.4477 10 33 10V9ZM36 9L36.9912 8.86784C36.925 8.37103 36.5012 8 36 8V9ZM37.0088 23.8678L35.0088 38.8678L36.9912 39.1322L38.9912 24.1322L37.0088 23.8678ZM36 38H33V40H36V38ZM32 39V42H34V39H32ZM33 41H29V43H33V41ZM30 42V39H28V42H30ZM29 38H26V40H29V38ZM25 39V42H27V39H25ZM26 41H22V43H26V41ZM23 42V39H21V42H23ZM22 38H19V40H22V38ZM18 39V42H20V39H18ZM19 41H15V43H19V41ZM16 42V39H14V42H16ZM15 38H12V40H15V38ZM12.9912 38.8678L10.9912 23.8678L9.00877 24.1322L11.0088 39.1322L12.9912 38.8678ZM10.9912 24.1322L12.9912 9.13216L11.0088 8.86784L9.00877 23.8678L10.9912 24.1322ZM12 10H15V8H12V10ZM16 9V6H14V9H16ZM15 7H19V5H15V7ZM18 6V9H20V6H18ZM19 10H22V8H19V10ZM23 9V6H21V9H23ZM22 7H26V5H22V7ZM25 6V9H27V6H25ZM26 10H29V8H26V10ZM30 9V6H28V9H30ZM29 7H33V5H29V7ZM32 6V9H34V6H32ZM33 10H36V8H33V10ZM35.0088 9.13216L37.0088 24.1322L38.9912 23.8678L36.9912 8.86784L35.0088 9.13216ZM12 40H36V38H12V40ZM12 10H36V8H12V10Z" fill="black"/>
<path d="M16 31V13H32V31H16Z" fill="white" stroke="black" stroke-width="2" stroke-linejoin="round"/>
<path d="M10 12H11L10 20H9L10 12Z" fill="black"/>
<path d="M38.5 12H37L38.5 24H40L38.5 12Z" fill="black"/>
<path d="M38.5 36H37L38.5 24H40L38.5 36Z" fill="black"/>
<path d="M40 24L38.5 12H37L38.5 24M40 24H38.5M40 24L38.5 36H37L38.5 24M10 12H11L10 20H9L10 12Z" stroke="black" stroke-width="2" stroke-linecap="round" stroke-linejoin="round"/>
</svg>
