<svg width="48" height="48" viewBox="0 0 48 48" fill="none" xmlns="http://www.w3.org/2000/svg">
<path fill-rule="evenodd" clip-rule="evenodd" d="M9 5C9 4.44772 9.44772 4 10 4H16C16.5523 4 17 4.44772 17 5V8H31V5C31 4.44772 31.4477 4 32 4H38C38.5523 4 39 4.44772 39 5V11H40C40.5523 11 41 11.4477 41 12V19C41 19.5523 40.5523 20 40 20H39V22H40C40.5523 22 41 22.4477 41 23V25C41 25.5523 40.5523 26 40 26H39V28H40C40.5523 28 41 28.4477 41 29V36C41 36.5523 40.5523 37 40 37H39V43C39 43.5523 38.5523 44 38 44H32C31.4477 44 31 43.5523 31 43V40H17V43C17 43.5523 16.5523 44 16 44H10C9.44772 44 9 43.5523 9 43V20H8C7.44772 20 7 19.5523 7 19V12C7 11.4477 7.44772 11 8 11H9V5ZM11 42H15V39C15 38.4477 15.4477 38 16 38H32C32.5523 38 33 38.4477 33 39V42H37V6H33V9C33 9.55228 32.5523 10 32 10H16C15.4477 10 15 9.55228 15 9V6H11V42Z" fill="black"/>
</svg>
