<svg width="48" height="48" viewBox="0 0 48 48" fill="none" xmlns="http://www.w3.org/2000/svg">
<path d="M10 43V5H16V9H32V5H38V43H32V39H16V43H10Z" fill="#FA5521" stroke="black" stroke-width="2" stroke-linejoin="round"/>
<path d="M16 32V14H32V32H16Z" fill="white" stroke="black" stroke-width="2" stroke-linejoin="round"/>
<path d="M8 12V11C7.44772 11 7 11.4477 7 12H8ZM10 12H11C11 11.4477 10.5523 11 10 11V12ZM10 19V20C10.5523 20 11 19.5523 11 19H10ZM8 19H7C7 19.5523 7.44772 20 8 20V19ZM38 12V11C37.4477 11 37 11.4477 37 12H38ZM40 12H41C41 11.4477 40.5523 11 40 11V12ZM40 19V20C40.5523 20 41 19.5523 41 19H40ZM38 19H37C37 19.5523 37.4477 20 38 20V19ZM38 23V22C37.4477 22 37 22.4477 37 23H38ZM38 25H37C37 25.5523 37.4477 26 38 26V25ZM40 25V26C40.5523 26 41 25.5523 41 25H40ZM40 23H41C41 22.4477 40.5523 22 40 22V23ZM38 29V28C37.4477 28 37 28.4477 37 29H38ZM40 29H41C41 28.4477 40.5523 28 40 28V29ZM40 36V37C40.5523 37 41 36.5523 41 36H40ZM38 36H37C37 36.5523 37.4477 37 38 37V36ZM8 13H10V11H8V13ZM9 12V19H11V12H9ZM10 18H8V20H10V18ZM9 19V12H7V19H9ZM38 13H40V11H38V13ZM39 12V19H41V12H39ZM40 18H38V20H40V18ZM39 19V12H37V19H39ZM37 23V25H39V23H37ZM38 26H40V24H38V26ZM41 25V23H39V25H41ZM40 22H38V24H40V22ZM38 30H40V28H38V30ZM39 29V36H41V29H39ZM40 35H38V37H40V35ZM39 36V29H37V36H39Z" fill="black"/>
</svg>
