<svg version="1.1" viewBox="0 0 50 50" xmlns="http://www.w3.org/2000/svg">
 <g stroke="#000" stroke-linecap="round" stroke-linejoin="round">
  <path d="m41.51 31.5 5-5v-3.998l-3.998-3.998-10-5-3.998-8.001-3-3-8.998 4e-7 -2 2-3 5.998-3.998 2-3.998 3.998 8e-7 10 5 5z" fill="#fff" stroke-width="3"/>
  <path d="m33.5 14.5-5.998-3-8.001 3.998-1.5 3" fill="none" stroke-width="2"/>
  <g fill="#fff" stroke-width="2px">
   <line class="cls-2" x1="32" x2="32" y1="40" y2="36"/>
   <line class="cls-2" x1="12" x2="12" y1="40" y2="36"/>
   <line class="cls-2" x1="10" x2="14" y1="38" y2="38"/>
   <line class="cls-2" x1="30" x2="34" y1="38" y2="38"/>
   <line class="cls-2" x1="20" x2="24" y1="46.01" y2="46.01"/>
   <line class="cls-2" x1="22" x2="22" y1="48.01" y2="44.01"/>
  </g>
 </g>
</svg>
