<svg version="1.1" viewBox="0 0 50 50" xmlns="http://www.w3.org/2000/svg">
 <g stroke="#000">
  <g fill="#fff" stroke-width="2">
   <path d="m36.98 5v-2.939" stroke-linecap="round" stroke-linejoin="round"/>
   <path d="m37 25.77v-2.769" stroke-linecap="round" stroke-linejoin="round"/>
   <path d="m34.69 8.998h4.618l2.694 2.692v4.615l-2.694 2.692h-4.618l-2.693-2.692v-4.615z" stroke-linecap="square"/>
   <g stroke-linecap="round" stroke-linejoin="round">
    <path d="m43.5 7.498 1.982-1.981"/>
    <path d="m45.99 14h2.999"/>
    <path d="m25 14h2.999"/>
    <path d="m43.5 20.5 1.982 1.981"/>
    <path d="m30.5 7.498-1.982-1.981"/>
   </g>
  </g>
  <g stroke-linecap="round" stroke-linejoin="round">
   <path d="m40.51 47.49 5-5v-3.998l-3.998-3.998-10-5-3.998-8.001-3-3h-8.998l-2 2-3 5.998-3.998 2-3.998 3.998 7e-7 10 5 5z" fill="#fff" stroke-width="3"/>
   <path d="m32.5 30.5-5.998-3-8.001 3.998-1.5 3" fill="none" stroke-width="2"/>
  </g>
 </g>
</svg>
