<svg version="1.1" viewBox="0 0 50 50" xmlns="http://www.w3.org/2000/svg">
 <g stroke="#000" stroke-linecap="round" stroke-linejoin="round">
  <path d="m41.51 30.5 5-5v-3.998l-3.998-3.998-10-5-3.998-8.001-3-3-8.998 4e-7 -2 2-3 5.998-3.998 2-3.998 3.998 7e-7 10 5 5z" fill="#fff" stroke-width="3"/>
  <path d="m33.5 13.5-5.998-3-8.001 3.998-1.5 3" fill="none" stroke-width="2"/>
  <g fill="#fff" stroke-width="2">
   <line class="cls-2" x1="10" x2="10" y1="37.98" y2="34"/>
   <line class="cls-2" x1="27" x2="31" y1="36" y2="36"/>
   <line class="cls-2" x1="29" x2="29" y1="37.98" y2="34"/>
   <line class="cls-2" x1="29" x2="29" y1="48" y2="43.99"/>
   <line class="cls-2" x1="20" x2="20" y1="41.99" y2="37.98"/>
   <line class="cls-2" x1="8.001" x2="12" y1="47.01" y2="47.01"/>
   <line class="cls-2" x1="10" x2="10" y1="48.98" y2="45.01"/>
   <line class="cls-2" x1="36" x2="39.98" y1="39.98" y2="39.98"/>
   <line class="cls-2" x1="37.98" x2="37.98" y1="41.99" y2="37.98"/>
  </g>
 </g>
</svg>
