<svg width="80" height="80" viewBox="0 0 80 80" fill="none" xmlns="http://www.w3.org/2000/svg">
<path d="M58.5 72L72 73.5L66 68L64 64L65 56L70 48L72 31L67 17L57 10L35 7L21 14L16 24L13 38L10 40L7 48V56L11 57L17 53L27 62L51 68L58.5 72Z" fill="white" stroke="black" stroke-width="3" stroke-linecap="round" stroke-linejoin="round"/>
<path d="M45 40L42 48V56L46 57L53 52" stroke="black" stroke-width="3" stroke-linecap="round" stroke-linejoin="round"/>
<path d="M23 34L29 28L25 22" stroke="black" stroke-width="3" stroke-linecap="round" stroke-linejoin="round"/>
<path d="M43 23L37 29L41 35" stroke="black" stroke-width="3" stroke-linecap="round" stroke-linejoin="round"/>
<path d="M25 44L28 40L31 44L34 40L37 44" stroke="black" stroke-width="3" stroke-linecap="round" stroke-linejoin="round"/>
</svg>
