<?xml version="1.0" encoding="utf-8"?>
<!-- Generator: Adobe Illustrator 24.0.1, SVG Export Plug-In . SVG Version: 6.00 Build 0)  -->
<svg version="1.1" id="Layer_1" xmlns="http://www.w3.org/2000/svg" xmlns:xlink="http://www.w3.org/1999/xlink" x="0px" y="0px"
	 viewBox="0 0 80 80" style="enable-background:new 0 0 80 80;" xml:space="preserve">
<style type="text/css">
	.st0{fill:#020202;}
	.st1{fill:none;stroke:#B5B5B5;stroke-miterlimit:10;}
</style>
<g>
	<path class="st0" d="M56.7,42c-1.1,0-2-0.9-2-2v-8.3l-6.3-6.3C48,25,47.8,24.5,47.8,24V7.6h-17V24c0,1.1-0.9,2-2,2s-2-0.9-2-2V5.6
		c0-1.1,0.9-2,2-2h21c1.1,0,2,0.9,2,2v17.6l6.3,6.3c0.4,0.4,0.6,0.9,0.6,1.4V40C58.7,41.1,57.8,42,56.7,42z"/>
	<path class="st0" d="M21.7,41.8c-1.1,0-2-0.9-2-2v-8.9c0-0.5,0.2-1,0.6-1.4l7.1-7.1c0.4-0.4,0.9-0.6,1.4-0.6h20.8c1.1,0,2,0.9,2,2
		s-0.9,2-2,2h-20l-5.9,5.9v8.1C23.7,40.9,22.8,41.8,21.7,41.8z"/>
</g>
<path class="st1" d="M27.8,24.5"/>
<g>
	<path class="st0" d="M49.6,76.2h-21c-1.1,0-2-0.9-2-2V56.6l-6.3-6.3c-0.4-0.4-0.6-0.9-0.6-1.4v-9.1c0-1.1,0.9-2,2-2s2,0.9,2,2v8.3
		l6.3,6.3c0.4,0.4,0.6,0.9,0.6,1.4v16.4h17V55.8c0-1.1,0.9-2,2-2s2,0.9,2,2v18.4C51.6,75.3,50.7,76.2,49.6,76.2z"/>
	<path class="st0" d="M49.6,58H28.8c-1.1,0-2-0.9-2-2s0.9-2,2-2h20l5.9-5.9V40c0-1.1,0.9-2,2-2s2,0.9,2,2v8.9c0,0.5-0.2,1-0.6,1.4
		L51,57.4C50.6,57.8,50.1,58,49.6,58z"/>
</g>
<path class="st0" d="M49.6,38.3h-21c-0.9,0-1.6-0.6-1.9-1.4c-0.3-0.8,0-1.7,0.8-2.2l8.9-6.3c0.9-0.6,2.1-0.4,2.8,0.5
	c0.6,0.9,0.4,2.1-0.5,2.8l-3.8,2.7h14.7c1.1,0,2,0.9,2,2S50.7,38.3,49.6,38.3z"/>
<path class="st0" d="M40.6,51.9c-0.6,0-1.2-0.3-1.6-0.8c-0.6-0.9-0.4-2.1,0.5-2.8l3.9-2.8H28.6c-1.1,0-2-0.9-2-2s0.9-2,2-2h20.9
	c0.9,0,1.6,0.6,1.9,1.4c0.3,0.8,0,1.7-0.7,2.2l-8.9,6.4C41.4,51.8,41,51.9,40.6,51.9z"/>
</svg>
