<?xml version="1.0" encoding="utf-8"?>
<!-- Generator: Adobe Illustrator 24.0.1, SVG Export Plug-In . SVG Version: 6.00 Build 0)  -->
<svg version="1.1" id="Layer_1" xmlns="http://www.w3.org/2000/svg" xmlns:xlink="http://www.w3.org/1999/xlink" x="0px" y="0px"
	 viewBox="0 0 80 80" style="enable-background:new 0 0 80 80;" xml:space="preserve">
<style type="text/css">
	.st0{fill:#020202;}
	.st1{fill:none;stroke:#B5B5B5;stroke-miterlimit:10;}
</style>
<g>
	<path class="st0" d="M43.7,42c-1.1,0-2-0.9-2-2v-8.2l-6.3-6.3c-0.4-0.4-0.6-0.9-0.6-1.4V7.6H17.8V24c0,1.1-0.9,2-2,2s-2-0.9-2-2
		V5.6c0-1.1,0.9-2,2-2h20.9c1.1,0,2,0.9,2,2v17.6l6.3,6.3c0.4,0.4,0.6,0.9,0.6,1.4V40C45.7,41.1,44.8,42,43.7,42z"/>
	<path class="st0" d="M8.7,41.8c-1.1,0-2-0.9-2-2v-8.9c0-0.5,0.2-1,0.6-1.4l7.1-7.1c0.4-0.4,0.9-0.6,1.4-0.6h20.8c1.1,0,2,0.9,2,2
		s-0.9,2-2,2h-20l-5.9,5.9v8.1C10.7,40.9,9.8,41.8,8.7,41.8z"/>
</g>
<path class="st1" d="M14.8,24.5"/>
<g>
	<path class="st0" d="M36.6,76.2H15.6c-1.1,0-2-0.9-2-2V56.6l-6.3-6.3c-0.4-0.4-0.6-0.9-0.6-1.4v-9.1c0-1.1,0.9-2,2-2s2,0.9,2,2V48
		l6.3,6.3c0.4,0.4,0.6,0.9,0.6,1.4v16.5h16.9V55.8c0-1.1,0.9-2,2-2s2,0.9,2,2v18.5C38.6,75.3,37.7,76.2,36.6,76.2z"/>
	<path class="st0" d="M36.6,58H15.8c-1.1,0-2-0.9-2-2s0.9-2,2-2h20l5.9-5.9V40c0-1.1,0.9-2,2-2s2,0.9,2,2v8.9c0,0.5-0.2,1-0.6,1.4
		L38,57.4C37.7,57.8,37.2,58,36.6,58z"/>
</g>
<path class="st0" d="M26.2,45c-1.1,0-2-0.9-2-2V30.3c0-1.1,0.9-2,2-2s2,0.9,2,2V43C28.2,44.1,27.3,45,26.2,45z"/>
<path class="st0" d="M26.2,50.3c-1.1,0-2-0.9-2-2V48c0-1.1,0.9-2,2-2s2,0.9,2,2v0.3C28.2,49.4,27.3,50.3,26.2,50.3z"/>
<path class="st0" d="M69.7,76.2H46.8c-1.1,0-2-0.9-2-2V55.4c0-1.1,0.9-2,2-2h22.8c1.1,0,2,0.9,2,2v18.8
	C71.7,75.3,70.8,76.2,69.7,76.2z M48.8,72.2h18.8V57.4H48.8V72.2z"/>
<g>
	<path class="st0" d="M49,57.4c-1.1,0-2-0.9-2-2v-5.7c0-0.5,0.2-1,0.6-1.4l5-5c0.4-0.4,0.9-0.6,1.4-0.6h8.1c1.1,0,2,0.9,2,2
		s-0.9,2-2,2h-7.3L51,50.6v4.8C51,56.5,50.1,57.4,49,57.4z"/>
	<path class="st0" d="M67.6,57.4c-1.1,0-2-0.9-2-2v-4.8l-3.8-3.8h-7.3c-1.1,0-2-0.9-2-2s0.9-2,2-2h8.1c0.5,0,1,0.2,1.4,0.6l5,5
		c0.4,0.4,0.6,0.9,0.6,1.4v5.7C69.6,56.5,68.7,57.4,67.6,57.4z"/>
</g>
<path class="st0" d="M58.3,65.9c-1.4,0-2.5-1.1-2.5-2.5v-0.3c0-1.4,1.1-2.5,2.5-2.5s2.5,1.1,2.5,2.5v0.3
	C60.8,64.8,59.6,65.9,58.3,65.9z"/>
<path class="st0" d="M58.3,69.3c-0.8,0-1.5-0.7-1.5-1.5V64c0-0.8,0.7-1.5,1.5-1.5s1.5,0.7,1.5,1.5v3.8
	C59.8,68.6,59.1,69.3,58.3,69.3z"/>
</svg>
