<svg fill="none" version="1.1" viewBox="0 0 80 80" xmlns="http://www.w3.org/2000/svg">
  <path d="m16 64 24 9 24-9v-13.825l10-4.175-10-5 10-5-18-7.5v-10.5l-10-10h-12l-10 10v10.5l-18 7.5 10 5-10 5 10 4.175zm0-13.825 14 5.825m-14-15 24 10m-16-22.5v1.5m10 10h12m5-4.4 13 5.4m-24 32v-22m-16-21 10 10m12 0 10-10m0-1v1m8 11-24 10m-10 5 10-5m0 0 10 5m0 0 14-5.825m-48-9.175 13-5.4m11-19.6v8m5 4-5-4" fill="#fff" fill-rule="evenodd" stroke="#000" stroke-linecap="round" stroke-linejoin="round" stroke-width="3"/>
</svg>
