<svg width="48" height="48" viewBox="0 0 48 48" fill="none" xmlns="http://www.w3.org/2000/svg">
<path fill-rule="evenodd" clip-rule="evenodd" d="M11 6C11 5.44772 11.4477 5 12 5H16C16.5523 5 17 5.44772 17 6V9H31V6C31 5.44772 31.4477 5 32 5H36C36.5523 5 37 5.44772 37 6V42C37 42.5523 36.5523 43 36 43H32C31.4477 43 31 42.5523 31 42V39H17V42C17 42.5523 16.5523 43 16 43H12C11.4477 43 11 42.5523 11 42V6ZM13 7V41H15V38C15 37.4477 15.4477 37 16 37H32C32.5523 37 33 37.4477 33 38V41H35V7H33V10C33 10.5523 32.5523 11 32 11H16C15.4477 11 15 10.5523 15 10V7H13Z" fill="black"/>
</svg>
