<svg width="48" height="48" viewBox="0 0 48 48" fill="none" xmlns="http://www.w3.org/2000/svg">
<path d="M10 17L15 12V7H19V10H29V7H33V12L35.5 14.5L36.5 13.5L39 16L38 17V22H40V26H38V31L39 32L36.5 34.5L35.5 33.5L33 36V41H29V38H19V41H15V36L10 31V26H8V22H10V17Z" fill="#FA5521"/>
<path d="M15 12L10 17V22M15 12V7H19V10M15 12L17 10H19M10 26V31L15 36M10 26H8V22H10M10 26V22M38 26V31M38 26H40V22H38M38 26V22M38 31L35.5 33.5M38 31L39 32L36.5 34.5L35.5 33.5M38 17V22M38 17L39 16L36.5 13.5L35.5 14.5M38 17L35.5 14.5M33 12L35.5 14.5M33 12V7H29V10M33 12L31 10H29M35.5 33.5L33 36M19 10H29M15 36L17 38H19M15 36V41H19V38M33 36L31 38H29M33 36V41H29V38M19 38H29" stroke="black" stroke-width="2" stroke-linejoin="round"/>
<path d="M19 15L15 19V29L19 33H29L33 29V19L29 15H19Z" fill="white" stroke="black" stroke-width="2" stroke-linejoin="round"/>
</svg>
