<svg width="48" height="48" viewBox="0 0 48 48" fill="none" xmlns="http://www.w3.org/2000/svg">
<path fill-rule="evenodd" clip-rule="evenodd" d="M18.2929 14.2929C18.4804 14.1054 18.7348 14 19 14H29C29.2652 14 29.5196 14.1054 29.7071 14.2929L33.7071 18.2929C33.8946 18.4804 34 18.7348 34 19V29C34 29.2652 33.8946 29.5196 33.7071 29.7071L29.7071 33.7071C29.5196 33.8946 29.2652 34 29 34H19C18.7348 34 18.4804 33.8946 18.2929 33.7071L14.2929 29.7071C14.1054 29.5196 14 29.2652 14 29V19C14 18.7348 14.1054 18.4804 14.2929 18.2929L18.2929 14.2929ZM19.4142 16L16 19.4142V28.5858L19.4142 32H28.5858L32 28.5858V19.4142L28.5858 16H19.4142Z" fill="black"/>
</svg>
