<svg width="48" height="48" viewBox="0 0 48 48" fill="none" xmlns="http://www.w3.org/2000/svg">
<path fill-rule="evenodd" clip-rule="evenodd" d="M14 7C14 6.44772 14.4477 6 15 6H19C19.5523 6 20 6.44772 20 7V9H28V7C28 6.44772 28.4477 6 29 6H33C33.5523 6 34 6.44772 34 7V11.5858L35.5 13.0858L35.7929 12.7929C36.1834 12.4024 36.8166 12.4024 37.2071 12.7929L39.7071 15.2929C40.0976 15.6834 40.0976 16.3166 39.7071 16.7071L39 17.4142V21H40C40.5523 21 41 21.4477 41 22V26C41 26.5523 40.5523 27 40 27H39V30.5858L39.7071 31.2929C40.0976 31.6834 40.0976 32.3166 39.7071 32.7071L37.2071 35.2071C36.8166 35.5976 36.1834 35.5976 35.7929 35.2071L35.5 34.9142L34 36.4142V41C34 41.5523 33.5523 42 33 42H29C28.4477 42 28 41.5523 28 41V39H20V41C20 41.5523 19.5523 42 19 42H15C14.4477 42 14 41.5523 14 41V36.4142L9.29289 31.7071C9.10536 31.5196 9 31.2652 9 31V27H8C7.44772 27 7 26.5523 7 26V22C7 21.4477 7.44772 21 8 21H9V17C9 16.7348 9.10536 16.4804 9.29289 16.2929L14 11.5858V7ZM16 9.58579L16.2929 9.29289C16.4804 9.10536 16.7348 9 17 9H18V8H16V9.58579ZM16 38.4142V40H18V39H17C16.7348 39 16.4804 38.8946 16.2929 38.7071L16 38.4142ZM30 39V40H32V38.4142L31.7071 38.7071C31.5196 38.8946 31.2652 39 31 39H30ZM37 30.5858V17.4142L30.5858 11H17.4142L11 17.4142V30.5858L17.4142 37H30.5858L37 30.5858ZM32 9.58579V8H30V9H31C31.2652 9 31.5196 9.10536 31.7071 9.29289L32 9.58579Z" fill="black"/>
</svg>
