<svg width="25" height="25" viewBox="0 0 25 25" fill="none" xmlns="http://www.w3.org/2000/svg">
<path d="M12 15V24M12 15L18 22M12 15L8 21" stroke="black" stroke-width="2" stroke-linecap="round"/>
<path d="M4 13L19 6L21 10L6 17L4 13Z" fill="white"/>
<path d="M5.44721 15.8944C5.94119 15.6474 6.14142 15.0468 5.89443 14.5528C5.64744 14.0588 5.04676 13.8586 4.55279 14.1056L5.44721 15.8944ZM2 16.5L1.10557 16.9472C1.35256 17.4412 1.95324 17.6414 2.44721 17.3944L2 16.5ZM2.39443 15.0528C2.14744 14.5588 1.54676 14.3586 1.05279 14.6056C0.558808 14.8526 0.358584 15.4532 0.605573 15.9472L2.39443 15.0528ZM19 6L19.8944 5.55279C19.6521 5.06822 19.0681 4.86471 18.5771 5.09382L19 6ZM4 13L3.57711 12.0938C3.33253 12.208 3.14448 12.4161 3.05568 12.671C2.96687 12.9259 2.98487 13.2058 3.10557 13.4472L4 13ZM6 17L5.10557 17.4472C5.34786 17.9318 5.93195 18.1353 6.42289 17.9062L6 17ZM21 10L21.4229 10.9062C21.6675 10.792 21.8555 10.5839 21.9443 10.329C22.0331 10.0741 22.0151 9.79419 21.8944 9.55279L21 10ZM2.89443 16.0528L2.39443 15.0528L0.605573 15.9472L1.10557 16.9472L2.89443 16.0528ZM18.5771 5.09382L3.57711 12.0938L4.42289 13.9062L19.4229 6.90618L18.5771 5.09382ZM3.10557 13.4472L5.10557 17.4472L6.89443 16.5528L4.89443 12.5528L3.10557 13.4472ZM6.42289 17.9062L21.4229 10.9062L20.5771 9.09382L5.57711 16.0938L6.42289 17.9062ZM21.8944 9.55279L19.8944 5.55279L18.1056 6.44721L20.1056 10.4472L21.8944 9.55279ZM7.10557 11.4472L9.10557 15.4472L10.8944 14.5528L8.89443 10.5528L7.10557 11.4472ZM4.55279 14.1056L1.55279 15.6056L2.44721 17.3944L5.44721 15.8944L4.55279 14.1056Z" fill="black"/>
<path d="M1 3H5M3 1V5" stroke="black" stroke-width="2" stroke-linecap="round"/>
<path d="M13 1C13 0.447715 13.4477 0 14 0C14.5523 0 15 0.447715 15 1C15 1.55228 14.5523 2 14 2C13.4477 2 13 1.55228 13 1Z" fill="black"/>
<path d="M23 4C23 3.44772 23.4477 3 24 3C24.5523 3 25 3.44772 25 4C25 4.55228 24.5523 5 24 5C23.4477 5 23 4.55228 23 4Z" fill="black"/>
<path d="M8 5C8 4.44772 8.44772 4 9 4C9.55228 4 10 4.44772 10 5C10 5.55228 9.55228 6 9 6C8.44772 6 8 5.55228 8 5Z" fill="black"/>
</svg>
