<svg width="25" height="25" viewBox="0 0 25 25" fill="none" xmlns="http://www.w3.org/2000/svg">
<path d="M22 11H3V22H22V11Z" fill="white"/>
<path d="M3 11H22M3 11V22H22V11M3 11L8 6M22 11L17 6" stroke="black" stroke-width="2" stroke-linecap="round" stroke-linejoin="round"/>
<path d="M14.2929 19.7071C14.6834 20.0976 15.3166 20.0976 15.7071 19.7071C16.0976 19.3166 16.0976 18.6834 15.7071 18.2929L14.2929 19.7071ZM13 14C13 13.4477 12.5523 13 12 13C11.4477 13 11 13.4477 11 14H13ZM10 15C9.44772 15 9 15.4477 9 16C9 16.5523 9.44772 17 10 17V15ZM15.7071 18.2929L12.7071 15.2929L11.2929 16.7071L14.2929 19.7071L15.7071 18.2929ZM11 14V16H13V14H11ZM12 15H10V17H12V15Z" fill="black"/>
</svg>
