<svg width="25" height="25" viewBox="0 0 25 25" fill="none" xmlns="http://www.w3.org/2000/svg">
<path d="M3 2V7H9V2H3Z" fill="white"/>
<path d="M3 17V23H9V17H3Z" fill="white"/>
<path d="M1 14.5V9.5L3.5 7H8.5L11 9.5V14.5L8.5 17H3.5L1 14.5Z" fill="white"/>
<path d="M3 2V7H9V2H3Z" stroke="black" stroke-width="2" stroke-linejoin="round"/>
<path d="M3 17V23H9V17H3Z" stroke="black" stroke-width="2" stroke-linejoin="round"/>
<path d="M1 14.5V9.5L3.5 7H8.5L11 9.5V14.5L8.5 17H3.5L1 14.5Z" stroke="black" stroke-width="2" stroke-linejoin="round"/>
<path d="M22.219 2V6.98406L16 6.99779V2H22.219Z" fill="white"/>
<path d="M16 17V23H22V17H16Z" fill="white"/>
<path d="M15 17V7L22.219 6.98406L16 6.99779L23 7V17H22H16H15Z" fill="white"/>
<path d="M22.219 6.98406V2H16V6.99779M22.219 6.98406L16 6.99779M22.219 6.98406L15 7V17H16M16 6.99779L23 7V17H22M16 17V23H22V17M16 17H22" stroke="black" stroke-width="2" stroke-linejoin="round"/>
</svg>
