<svg width="25" height="25" viewBox="0 0 25 25" fill="none" xmlns="http://www.w3.org/2000/svg">
<path d="M3.55279 5.10557C3.26663 5.24865 3.0662 5.52002 3.01361 5.8356L1.01361 17.8356C0.936349 18.2991 1.19228 18.7539 1.62861 18.9285L6.62861 20.9285C7.00003 21.077 7.42424 20.99 7.70711 20.7071L9.41421 19H15.5858L17.2929 20.7071C17.5758 20.99 18 21.077 18.3714 20.9285L23.3714 18.9285C23.8077 18.7539 24.0637 18.2991 23.9864 17.8356L21.9864 5.8356C21.9338 5.52002 21.7334 5.24865 21.4472 5.10557L19.4472 4.10557C19.2337 3.99882 18.989 3.97196 18.7575 4.02986L14.8769 5H10.1231L6.24254 4.02986C6.01095 3.97196 5.7663 3.99882 5.55279 4.10557L3.55279 5.10557Z" fill="white" stroke="black" stroke-width="2" stroke-linejoin="round"/>
<path d="M7 13V14H8H9H10V13V12V11H9H8H7V12V13Z" stroke="black" stroke-width="2"/>
<path d="M15 13V14H16H17H18V13V12V11H17H16H15V12V13Z" stroke="black" stroke-width="2"/>
</svg>
