<svg width="25" height="25" viewBox="0 0 25 25" fill="none" xmlns="http://www.w3.org/2000/svg">
<path d="M3 2V7H9V2H3Z" fill="white"/>
<path d="M3 17V23H9V17H3Z" fill="white"/>
<path d="M1 14.5V9.5L3.5 7H8.5L11 9.5V14.5L8.5 17H3.5L1 14.5Z" fill="white"/>
<path d="M3 2V7H9V2H3Z" stroke="black" stroke-width="2" stroke-linejoin="round"/>
<path d="M3 17V23H9V17H3Z" stroke="black" stroke-width="2" stroke-linejoin="round"/>
<path d="M1 14.5V9.5L3.5 7H8.5L11 9.5V14.5L8.5 17H3.5L1 14.5Z" stroke="black" stroke-width="2" stroke-linejoin="round"/>
<path d="M15 17L24 8M24 17L15 8" stroke="black" stroke-width="2" stroke-linecap="round"/>
</svg>
