<svg width="25" height="25" viewBox="0 0 25 25" fill="none" xmlns="http://www.w3.org/2000/svg">
<path fill-rule="evenodd" clip-rule="evenodd" d="M7.29289 1.29289C7.68342 0.902369 8.31658 0.902369 8.70711 1.29289L13 5.58579L17.2929 1.29289C17.6834 0.902369 18.3166 0.902369 18.7071 1.29289L23.7071 6.29289C23.8946 6.48043 24 6.73478 24 7V14C24 14.2652 23.8946 14.5196 23.7071 14.7071L13.7071 24.7071C13.3166 25.0976 12.6834 25.0976 12.2929 24.7071L2.29289 14.7071C2.10536 14.5196 2 14.2652 2 14V7C2 6.73478 2.10536 6.48043 2.29289 6.29289L7.29289 1.29289ZM4 7.41421V13.5858L13 22.5858L22 13.5858V7.41421L18 3.41421L13.7071 7.70711C13.3166 8.09763 12.6834 8.09763 12.2929 7.70711L8 3.41421L4 7.41421Z" fill="black"/>
</svg>
