<svg width="25" height="25" viewBox="0 0 25 25" fill="none" xmlns="http://www.w3.org/2000/svg">
<path fill-rule="evenodd" clip-rule="evenodd" d="M10 2C10 1.44772 10.4477 1 11 1H14C14.5523 1 15 1.44772 15 2V5C15 5.55228 14.5523 6 14 6H11C10.4477 6 10 5.55228 10 5V2ZM10 11C10 10.4477 10.4477 10 11 10H14C14.5523 10 15 10.4477 15 11V14C15 14.5523 14.5523 15 14 15H11C10.4477 15 10 14.5523 10 14V11ZM10 20C10 19.4477 10.4477 19 11 19H14C14.5523 19 15 19.4477 15 20V23C15 23.5523 14.5523 24 14 24H11C10.4477 24 10 23.5523 10 23V20Z" fill="black"/>
</svg>
