<svg width="25" height="25" viewBox="0 0 25 25" fill="none" xmlns="http://www.w3.org/2000/svg">
<path fill-rule="evenodd" clip-rule="evenodd" d="M2 15C1.44772 15 1 14.5523 1 14V11C1 10.4477 1.44772 10 2 10H5C5.55228 10 6 10.4477 6 11V14C6 14.5523 5.55228 15 5 15H2ZM11 15C10.4477 15 10 14.5523 10 14V11C10 10.4477 10.4477 10 11 10H14C14.5523 10 15 10.4477 15 11V14C15 14.5523 14.5523 15 14 15H11ZM20 15C19.4477 15 19 14.5523 19 14V11C19 10.4477 19.4477 10 20 10L23 10C23.5523 10 24 10.4477 24 11V14C24 14.5523 23.5523 15 23 15H20Z" fill="black"/>
</svg>
