<svg width="25" height="25" viewBox="0 0 25 25" fill="none" xmlns="http://www.w3.org/2000/svg">
<path d="M5 16L1 17M5 20L1 24M9 20L7 24" stroke="black" stroke-width="2" stroke-linecap="round"/>
<path d="M18 1L10 9H3V13H8L12 17V22H16V15L24 7V1H18Z" fill="white"/>
<path d="M18 1V0H17.5858L17.2929 0.292893L18 1ZM24 1H25V0H24V1ZM24 7L24.7071 7.70711L25 7.41421V7H24ZM16 22V23H17V22H16ZM12 22H11V23H12V22ZM3 13H2V14H3V13ZM3 9V8H2V9H3ZM8 13L8.70711 12.2929L8.41421 12H8V13ZM12 17H13V16.5858L12.7071 16.2929L12 17ZM18 4C17.4477 4 17 4.44772 17 5C17 5.55228 17.4477 6 18 6V4ZM20 5H21C21 4.44772 20.5523 4 20 4V5ZM19 7C19 7.55228 19.4477 8 20 8C20.5523 8 21 7.55228 21 7H19ZM10.7071 9.70711L18.7071 1.70711L17.2929 0.292893L9.29289 8.29289L10.7071 9.70711ZM18 2H24V0H18V2ZM23 1V7H25V1H23ZM23.2929 6.29289L15.2929 14.2929L16.7071 15.7071L24.7071 7.70711L23.2929 6.29289ZM15 15V22H17V15H15ZM16 21H12V23H16V21ZM4 13V9H2V13H4ZM3 10H10V8H3V10ZM8 12H3V14H8V12ZM13 22V17H11V22H13ZM12.7071 16.2929L8.70711 12.2929L7.29289 13.7071L11.2929 17.7071L12.7071 16.2929ZM18 6H20V4H18V6ZM19 5V7H21V5H19ZM9.29289 9.70711L15.2929 15.7071L16.7071 14.2929L10.7071 8.29289L9.29289 9.70711Z" fill="black"/>
</svg>
