<svg width="25" height="25" viewBox="0 0 25 25" fill="none" xmlns="http://www.w3.org/2000/svg">
<path d="M17 2V6V10H21V6V2H17Z" fill="white"/>
<path d="M13 6H17M17 6V2H21V6M17 6V10H21V6M21 6H24" stroke="black" stroke-width="2" stroke-linecap="round" stroke-linejoin="round"/>
<path d="M5 15V19V23H9V19V15H5Z" fill="white"/>
<path d="M1 19H5M5 19V15H9V19M5 19V23H9V19M9 19H24" stroke="black" stroke-width="2" stroke-linecap="round" stroke-linejoin="round"/>
<path d="M9 3.77778V8.22222L7.22222 10H2.77778L1 8.22222V3.77778L2.77778 2H7.22222L9 3.77778Z" fill="white"/>
<path d="M9 8.22222L9.70711 8.92933L10 8.63644V8.22222H9ZM9 3.77778H10V3.36356L9.70711 3.07067L9 3.77778ZM7.22222 2L7.92933 1.29289L7.63644 1H7.22222V2ZM2.77778 2V1H2.36356L2.07067 1.29289L2.77778 2ZM1 3.77778L0.292893 3.07067L0 3.36356V3.77778H1ZM1 8.22222H0V8.63644L0.292893 8.92933L1 8.22222ZM2.77778 10L2.07067 10.7071L2.36356 11H2.77778V10ZM7.22222 10V11H7.63644L7.92933 10.7071L7.22222 10ZM4.29289 5.29289C3.90237 5.68342 3.90237 6.31658 4.29289 6.70711C4.68342 7.09763 5.31658 7.09763 5.70711 6.70711L4.29289 5.29289ZM8.70711 3.70711C9.09763 3.31658 9.09763 2.68342 8.70711 2.29289C8.31658 1.90237 7.68342 1.90237 7.29289 2.29289L8.70711 3.70711ZM10 8.22222V3.77778H8V8.22222H10ZM9.70711 3.07067L7.92933 1.29289L6.51512 2.70711L8.29289 4.48488L9.70711 3.07067ZM7.22222 1H2.77778V3H7.22222V1ZM2.07067 1.29289L0.292893 3.07067L1.70711 4.48488L3.48488 2.70711L2.07067 1.29289ZM0 3.77778V8.22222H2V3.77778H0ZM0.292893 8.92933L2.07067 10.7071L3.48488 9.29289L1.70711 7.51512L0.292893 8.92933ZM2.77778 11H7.22222V9H2.77778V11ZM7.92933 10.7071L9.70711 8.92933L8.29289 7.51512L6.51512 9.29289L7.92933 10.7071ZM5.70711 6.70711L8.70711 3.70711L7.29289 2.29289L4.29289 5.29289L5.70711 6.70711Z" fill="black"/>
</svg>
