<svg width="48" height="48" viewBox="0 0 48 48" fill="none" xmlns="http://www.w3.org/2000/svg">
<path fill-rule="evenodd" clip-rule="evenodd" d="M6 15C6 14.4477 6.44772 14 7 14H9C9.55228 14 10 14.4477 10 15V22C10 22.5523 9.55228 23 9 23H7C6.44772 23 6 22.5523 6 22V15ZM38 15C38 14.4477 38.4477 14 39 14H41C41.5523 14 42 14.4477 42 15V33C42 33.5523 41.5523 34 41 34H39C38.4477 34 38 33.5523 38 33V15Z" fill="black"/>
<path fill-rule="evenodd" clip-rule="evenodd" d="M13 5C13 4.44772 13.4477 4 14 4H18C18.5523 4 19 4.44772 19 5V7H29V5C29 4.44772 29.4477 4 30 4H34C34.5523 4 35 4.44772 35 5V7.46482L37.5547 9.16795C37.6995 9.26448 37.8166 9.39713 37.8944 9.55279L39.8944 13.5528C39.9639 13.6916 40 13.8448 40 14V34C40 34.1552 39.9639 34.3084 39.8944 34.4472L37.8944 38.4472C37.8166 38.6029 37.6995 38.7355 37.5547 38.8321L35 40.5352V43C35 43.5523 34.5523 44 34 44H30C29.4477 44 29 43.5523 29 43V41H19V43C19 43.5523 18.5523 44 18 44H14C13.4477 44 13 43.5523 13 43V40.5352L10.4453 38.8321C10.3005 38.7355 10.1834 38.6029 10.1056 38.4472L8.10557 34.4472C8.03614 34.3084 8 34.1552 8 34V14C8 13.8448 8.03614 13.6916 8.10557 13.5528L10.1056 9.55279C10.1834 9.39713 10.3005 9.26448 10.4453 9.16795L13 7.46482V5ZM14.3028 9L11.7757 10.6847L10 14.2361V33.7639L11.7757 37.3153L14.3028 39H33.6972L36.2243 37.3153L38 33.7639V14.2361L36.2243 10.6847L33.6972 9H14.3028ZM33 7V6H31V7H33ZM33 41H31V42H33V41ZM15 41V42H17V41H15ZM15 7H17V6H15V7Z" fill="black"/>
</svg>
